<?xml version="1.0" standalone="no"?>
<!DOCTYPE svg PUBLIC "-//W3C//DTD SVG 20010904//EN"
 "http://www.w3.org/TR/2001/REC-SVG-20010904/DTD/svg10.dtd">
<svg version="1.0" xmlns="http://www.w3.org/2000/svg"
 width="100.000000pt" height="100.000000pt" viewBox="0 0 100.000000 100.000000"
 preserveAspectRatio="xMidYMid meet">
<metadata>
Created by potrace 1.16, written by Peter Selinger 2001-2019
</metadata>
<g transform="translate(0.000000,100.000000) scale(0.100000,-0.100000)"
fill="#000000" stroke="none">
<path d="M348 981 c-214 -69 -348 -254 -348 -481 0 -287 213 -500 500 -500
287 0 500 213 500 500 0 227 -136 415 -349 480 -83 26 -223 26 -303 1z m512
-296 c0 -19 -4 -35 -10 -35 -5 0 -11 -45 -12 -102 -3 -102 -3 -102 -34 -123
-17 -12 -99 -49 -183 -83 l-151 -62 -134 0 c-133 0 -135 0 -155 26 -18 23 -21
41 -21 123 0 56 -5 102 -11 108 -6 6 -9 28 -7 49 l3 38 185 47 c184 47 186 47
358 48 l172 1 0 -35z"/>
<path d="M653 583 l-122 -45 -3 -89 c-2 -49 -2 -89 -1 -89 8 0 223 94 240 106
21 13 23 22 23 89 0 41 -3 75 -7 74 -5 -1 -63 -21 -130 -46z"/>
<path d="M210 441 c0 -63 4 -92 14 -100 9 -8 52 -11 127 -9 l114 3 3 98 3 97
-131 0 -130 0 0 -89z"/>
</g>
</svg>
